<?xml version="1.0" encoding="UTF-8" standalone="no"?><!DOCTYPE svg PUBLIC "-//W3C//DTD SVG 1.1//EN" "http://www.w3.org/Graphics/SVG/1.1/DTD/svg11.dtd"><svg width="100%" height="100%" viewBox="0 0 8334 8334" version="1.1" xmlns="http://www.w3.org/2000/svg" xmlns:xlink="http://www.w3.org/1999/xlink" xml:space="preserve" xmlns:serif="http://www.serif.com/" style="fill-rule:evenodd;clip-rule:evenodd;stroke-linejoin:round;stroke-miterlimit:2;"><g><path d="M5305.93,5203.94c-6.608,36.719 -9.115,51.107 -11.784,65.495c-86.491,465.104 -367.936,759.114 -810.384,898.437c-275.781,86.849 -478.874,-70.963 -492.253,-360.221c-10.97,-236.849 125.163,-398.959 283.562,-542.318c204.231,-184.798 422.298,-354.199 629.589,-535.71c298.405,-261.328 490.56,-569.238 431.25,-990.527c-53.19,-377.767 -204.785,-706.966 -454.296,-993.424c-37.5,-43.067 -70.183,-90.3 -105.111,-135.645l-33.692,28.581c74.675,240.462 99.773,485.709 87.175,736.295c-19.076,379.167 -98.242,740.463 -306.413,1063.74c-189.974,294.987 -444.531,512.533 -784.538,615.951c-274.674,83.528 -466.829,-87.435 -427.115,-372.07c15.69,-112.533 66.373,-207.26 138.248,-292.286c58.464,-69.238 120.443,-135.644 177.149,-206.25c266.959,-332.226 281.803,-796.451 -8.041,-1218.16c-3.157,693.295 -384.505,1164.97 -867.806,1579.27c-189.16,162.142 -381.705,320.442 -567.871,485.937c-360.254,320.215 -677.636,675.456 -785.905,1161.88c-138.313,621.354 -47.916,1221.22 215.788,1797.01c52.572,114.811 113.704,225.065 212.207,343.424c0,-58.593 0.716,-90.56 -0.098,-122.461c-7.487,-290.299 121.517,-507.845 358.985,-664.746c172.819,-114.192 368.262,-168.001 569.336,-209.017c298.405,-60.872 602.636,-29.362 902.409,-64.518c770.67,-90.364 1308.46,-484.245 1583.85,-1217.64c101.009,-268.945 134.635,-544.792 65.755,-851.009Zm984.831,-1943.98c-74.186,10.091 -106.869,73.47 -145.671,123.307c-171.582,220.443 -232.324,478.255 -237.37,751.595c-2.994,163.119 -15.169,324.545 -72.363,478.386c-26.204,70.508 -59.863,149.381 -150.976,147.591c-92.448,-1.791 -118.588,-82.227 -140.463,-155.436c-17.903,-59.929 -29.329,-121.778 -45.28,-190.007c-111.067,173.307 -126.465,342.611 -35.742,568.197c142.774,355.11 125.846,705.208 -1.986,1059.21c-72.135,199.87 -185.384,377.246 -285.677,561.914l3.483,5.046l-3.32,-4.786c-13.932,4.558 -14.29,12.826 -6.51,23.438l12.695,-14.486c251.009,-153.157 452.962,-360.058 625.553,-593.782c332.357,-450.13 530.567,-941.797 442.611,-1517.09c-28.505,-185.967 -50.373,-372.892 -65.56,-560.417c-18.978,-234.961 47.136,-458.821 106.576,-682.682Zm-3600.88,1084.6c-9.017,12.435 -31.641,24.381 -8.236,49.772c279.948,-206.966 486.328,-472.852 616.244,-793.001c209.668,-516.7 245.54,-1041.11 60.514,-1577.47c-143.62,-416.407 -3.288,-715.853 401.009,-871.354c-469.271,-22.494 -811.198,253.58 -878.223,693.326c-37.695,247.396 44.369,475.814 111.589,707.552c186.979,644.89 94.661,1244.17 -302.897,1791.18Zm1830.34,-3214.1c7.064,-84.05 14.681,-168.034 22.038,-252.051c-166.764,189.844 -179.98,421.224 -166.667,655.306c20.248,356.445 225.814,613.249 471.42,847.363c216.471,206.283 459.31,392.676 546.289,700.521c9.245,-5.143 13.867,-6.478 13.867,-7.91c0.618,-41.406 2.572,-82.91 0.684,-124.219c-20.248,-447.103 -114.551,-868.294 -439.03,-1203.35c-102.181,-105.501 -215.69,-199.935 -321.745,-301.79c-88.444,-84.961 -137.468,-187.988 -126.856,-313.867Zm-554.101,1038.64c29.166,333.659 167.187,623.503 349.186,895.736c140.072,209.538 206.348,433.626 162.533,685.449c-7.715,44.303 -13.477,88.932 -20.15,133.398l18.62,1.53c8.235,-16.015 17.871,-31.478 24.479,-48.144c16.601,-41.96 36.588,-83.301 46.94,-126.856c115.202,-484.57 56.185,-948.437 -213.965,-1366.67c-170.28,-263.607 -202.539,-536.491 -158.561,-832.259c4.459,-29.883 9.896,-59.636 12.695,-89.649c2.637,-27.799 30.274,-56.836 0.358,-94.368c-186.784,258.561 -248.763,537.076 -222.135,841.829Zm-1132.59,1192.51c6.055,-175.032 -16.862,-349.284 -125.618,-532.357c4.752,53.614 4.655,76.368 9.017,98.177c50.26,252.214 -4.753,478.614 -164.193,680.274c-58.529,73.991 -115.495,149.219 -172.819,224.153c-227.214,297.071 -303.223,637.728 -296.777,1010.35c18.326,-6.022 30.891,-6.38 37.402,-12.858c410.091,-405.436 692.545,-874.675 712.988,-1467.74Zm2115.21,-2934.31c-248.861,250.912 -280.925,587.63 -63.737,899.219c9.277,-206.25 75.065,-361.068 205.078,-486.621c45.996,-44.434 91.146,-90.495 131.25,-140.202c153.125,-189.844 160.482,-511.686 18.424,-699.707c-86.197,220.866 -86.197,220.866 -291.015,427.311Zm1894.65,2498.93c-410.449,220.508 -503.059,591.113 -475.52,1019.24c35.091,-126.562 89.095,-244.759 164.811,-353.222c69.564,-99.642 155.696,-183.496 243.913,-266.146c174.772,-163.77 282.031,-419.369 245.768,-588.737c-49.024,77.767 -100.781,146.842 -178.972,188.867Zm-2292.68,-2051.79c-2.605,-0.065 -5.241,-0.131 -7.976,-0.293l0.684,0.651l-0.781,-0.716l-0.391,4.329c0.781,-0.846 1.4,-1.758 2.181,-2.604l6.283,-1.367Zm1749.71,2373.27c-1.651,2.891 -3.29,5.788 -4.916,8.692c1.823,-0.286 3.577,-0.904 5.176,-1.823c0.977,-0.586 -0.13,-4.492 -0.26,-6.869Zm-4.916,8.692c-1.334,0.26 -2.702,0.488 -4.036,0.846l1.237,1.009l-1.205,-1.009l-0.748,2.702c1.106,-0.163 2.018,-0.553 3.157,-0.684l1.595,-2.864Z" style="fill:#62bddb;fill-rule:nonzero;"/><path d="M5305.93,5203.94c-6.608,36.719 -9.115,51.107 -11.784,65.495c-86.491,465.104 -367.936,759.114 -810.384,898.437c-275.781,86.849 -478.874,-70.963 -492.253,-360.221c-10.97,-236.849 125.163,-398.959 283.562,-542.318c204.231,-184.798 422.298,-354.199 629.589,-535.71c298.405,-261.328 490.56,-569.238 431.25,-990.527c-53.19,-377.767 -204.785,-706.966 -454.296,-993.424c-37.5,-43.067 -70.183,-90.3 -105.111,-135.645l-33.692,28.581c74.675,240.462 99.773,485.709 87.175,736.295c-19.076,379.167 -98.242,740.463 -306.413,1063.74c-189.974,294.987 -444.531,512.533 -784.538,615.951c-274.674,83.528 -466.829,-87.435 -427.115,-372.07c15.69,-112.533 66.373,-207.26 138.248,-292.286c58.464,-69.238 120.443,-135.644 177.149,-206.25c266.959,-332.226 281.803,-796.451 -8.041,-1218.16c-3.157,693.295 -384.505,1164.97 -867.806,1579.27c-189.16,162.142 -381.705,320.442 -567.871,485.937c-360.254,320.215 -677.636,675.456 -785.905,1161.88c-138.313,621.354 -47.916,1221.22 215.788,1797.01c52.572,114.811 113.704,225.065 212.207,343.424c0,-58.593 0.716,-90.56 -0.098,-122.461c-7.487,-290.299 121.517,-507.845 358.985,-664.746c172.819,-114.192 368.262,-168.001 569.336,-209.017c298.405,-60.872 602.636,-29.362 902.409,-64.518c770.67,-90.364 1308.46,-484.245 1583.85,-1217.64c101.009,-268.945 134.635,-544.792 65.755,-851.009Zm899.527,-1592.83c21.614,-118.094 -21.565,-277.68 -60.367,-227.843c-53.789,69.106 -96.685,141.885 -130.387,217.663c-73.805,165.948 -103.519,346.281 -106.983,533.932c-2.994,163.119 -15.169,324.545 -72.363,478.386c-26.204,70.508 -59.863,149.381 -150.976,147.591c-92.448,-1.791 -118.588,-82.227 -140.463,-155.436c-17.903,-59.929 -29.329,-121.778 -45.28,-190.007c-111.067,173.307 -126.465,342.611 -35.742,568.197c142.774,355.11 125.846,705.208 -1.986,1059.21c-72.135,199.87 -185.384,377.246 -285.677,561.914l3.483,5.046l-3.32,-4.786c-13.932,4.558 -14.29,12.826 -6.51,23.438l12.695,-14.486c251.009,-153.157 452.962,-360.058 625.553,-593.782c332.357,-450.13 530.567,-941.797 442.611,-1517.09c-28.505,-185.967 -50.373,-372.892 -65.56,-560.417c-9.099,-112.654 1.363,-222.757 21.272,-331.532Zm-3515.58,733.453c-9.017,12.435 -31.641,24.381 -8.236,49.772c279.948,-206.966 486.328,-472.852 616.244,-793.001c209.668,-516.7 245.54,-1041.11 60.514,-1577.47c-57.091,-165.528 -69.313,-312.575 -37.92,-439.444c11.889,-48.046 -135.741,-99.83 -250.225,-33.472c-106.917,61.972 -180.516,238.776 -189.069,294.888c-37.695,247.396 44.369,475.814 111.589,707.552c186.979,644.89 94.661,1244.17 -302.897,1791.18Zm1830.34,-3214.1c7.064,-84.05 -82.667,-101.512 -108.655,-19.358c-42.289,133.683 -44.22,277.63 -35.974,422.613c20.248,356.445 225.814,613.249 471.42,847.363c216.471,206.283 459.31,392.676 546.289,700.521c9.245,-5.143 13.867,-6.478 13.867,-7.91c0.618,-41.406 2.572,-82.91 0.684,-124.219c-20.248,-447.103 -114.551,-868.294 -439.03,-1203.35c-102.181,-105.501 -215.69,-199.935 -321.745,-301.79c-88.444,-84.961 -137.468,-187.988 -126.856,-313.867Zm-554.101,1038.64c29.166,333.659 167.187,623.503 349.186,895.736c140.072,209.538 206.348,433.626 162.533,685.449c-7.715,44.303 -13.477,88.932 -20.15,133.398l18.62,1.53c8.235,-16.015 17.871,-31.478 24.479,-48.144c16.601,-41.96 36.588,-83.301 46.94,-126.856c115.202,-484.57 56.185,-948.437 -213.965,-1366.67c-170.28,-263.607 -202.539,-536.491 -158.561,-832.259c4.459,-29.883 9.896,-59.636 12.695,-89.649c2.637,-27.799 30.274,-56.836 0.358,-94.368c-186.784,258.561 -248.763,537.076 -222.135,841.829Zm-1132.59,1192.51c6.055,-175.032 -16.862,-349.284 -125.618,-532.357c4.752,53.614 4.655,76.368 9.017,98.177c50.26,252.214 -4.753,478.614 -164.193,680.274c-58.529,73.991 -115.495,149.219 -172.819,224.153c-227.214,297.071 -303.223,637.728 -296.777,1010.35c18.326,-6.022 30.891,-6.38 37.402,-12.858c410.091,-405.436 692.545,-874.675 712.988,-1467.74Zm2115.21,-2934.31c-59.885,60.378 -107.216,125.725 -141.541,194.495c-108.318,217.014 -87.121,468.114 77.804,704.724c5.689,-126.481 32.63,-233.62 82.602,-326.53c31.516,-58.596 185.953,-779.134 -18.865,-572.689Zm1583.94,3164.94c69.564,-99.642 121.085,-543.04 54.296,-468.305c-193.635,216.673 -239.584,503.2 -219.107,821.527c35.091,-126.562 89.095,-244.759 164.811,-353.222Z" style="fill:#0076b2;fill-rule:nonzero;"/><path d="M5305.93,5203.94c-6.608,36.719 -9.115,51.107 -11.784,65.495c-86.491,465.104 -367.936,759.114 -810.384,898.437c-275.781,86.849 -478.874,-70.963 -492.253,-360.221c-10.97,-236.849 125.163,-398.959 283.562,-542.318c204.231,-184.798 422.298,-354.199 629.589,-535.71c195.08,-170.84 421.975,-385.097 373.329,-924.066c-50.337,-511.679 -469.454,-882.374 -466.403,-861.112c20.34,141.765 25.702,285.215 18.4,430.458c-19.076,379.167 -98.242,740.463 -306.413,1063.74c-189.974,294.987 -444.531,512.533 -784.538,615.951c-274.674,83.528 -466.829,-87.435 -427.115,-372.07c15.69,-112.533 66.373,-207.26 138.248,-292.286c58.464,-69.238 120.443,-135.644 177.149,-206.25c266.959,-332.226 281.803,-796.451 -8.041,-1218.16c-3.157,693.295 -384.505,1164.97 -867.806,1579.27c-189.16,162.142 -381.705,320.442 -567.871,485.937c-360.254,320.215 -677.636,675.456 -785.905,1161.88c-138.313,621.354 -47.916,1221.22 215.788,1797.01c52.572,114.811 113.704,225.065 212.207,343.424c0,-58.593 0.716,-90.56 -0.098,-122.461c-7.487,-290.299 121.517,-507.845 358.985,-664.746c172.819,-114.192 368.262,-168.001 569.336,-209.017c298.405,-60.872 602.636,-29.362 902.409,-64.518c770.67,-90.364 1308.46,-484.245 1583.85,-1217.64c101.009,-268.945 134.635,-544.792 65.755,-851.009Zm878.255,-1261.3c-18.978,-234.961 -271.419,-81.12 -276.465,192.22c-2.994,163.119 -15.169,324.545 -72.363,478.386c-26.204,70.508 -59.863,149.381 -150.976,147.591c-92.448,-1.791 -118.588,-82.227 -140.463,-155.436c-17.903,-59.929 -29.329,-121.778 -45.28,-190.007c-111.067,173.307 -126.465,342.611 -35.742,568.197c142.774,355.11 125.846,705.208 -1.986,1059.21c-72.135,199.87 -185.384,377.246 -285.677,561.914l3.483,5.046l-3.32,-4.786c-13.932,4.558 -14.29,12.826 -6.51,23.438l12.695,-14.486c251.009,-153.157 452.962,-360.058 625.553,-593.782c332.357,-450.13 530.567,-941.797 442.611,-1517.09c-28.505,-185.967 -50.373,-372.892 -65.56,-560.417Zm-3494.3,401.921c-9.017,12.435 -31.641,24.381 -8.236,49.772c279.948,-206.966 486.328,-472.852 616.244,-793.001c209.668,-516.7 179.617,-842.752 -5.409,-1379.11c-143.62,-416.406 -422.477,-258.974 -419.616,-201.593c9.088,182.204 68.793,356.52 119.914,532.756c186.979,644.89 94.661,1244.17 -302.897,1791.18Zm2213.71,-2455.68c-102.181,-105.501 -541.314,-589.247 -528.001,-355.165c20.248,356.445 225.814,613.249 471.42,847.363c216.471,206.283 459.31,392.676 546.289,700.521c9.245,-5.143 13.867,-6.478 13.867,-7.91c0.618,-41.406 2.572,-82.91 0.684,-124.219c-20.248,-447.103 -179.78,-725.532 -504.259,-1060.59Zm-888.889,333.333c29.167,333.659 118.603,570.389 300.602,842.622c140.072,209.538 206.348,433.626 162.533,685.449c-7.715,44.303 -13.477,88.932 -20.15,133.398l18.62,1.53c8.235,-16.015 17.871,-31.478 24.479,-48.144c16.601,-41.96 36.588,-83.301 46.94,-126.856c115.202,-484.57 56.185,-948.437 -213.965,-1366.67c-170.28,-263.607 -202.539,-536.491 -158.561,-832.259c4.459,-29.883 -187.126,406.174 -160.498,710.926Zm-1181.17,1139.4c6.055,-175.032 -121.354,44.434 -280.794,246.094c-58.529,73.991 -115.495,149.219 -172.819,224.153c-227.214,297.071 -303.223,637.728 -296.777,1010.35c18.326,-6.022 30.891,-6.38 37.402,-12.858c410.091,-405.436 692.545,-874.675 712.988,-1467.74Z" style="fill:#361451;fill-rule:nonzero;"/><path d="M5305.93,5203.94c-6.608,36.719 -9.115,51.107 -11.784,65.495c-86.491,465.104 -367.936,759.114 -810.384,898.437c-275.781,86.849 -478.874,-70.963 -492.253,-360.221c-10.97,-236.849 125.163,-398.959 283.562,-542.318c204.231,-184.798 422.298,-354.199 629.589,-535.71c298.405,-261.328 157.166,-1457.29 -74.674,-1354.72c-24.635,378.846 -98.242,740.463 -306.413,1063.74c-189.974,294.987 -444.531,512.533 -784.538,615.951c-274.674,83.528 -466.829,-87.435 -427.115,-372.07c15.69,-112.533 66.373,-207.26 138.248,-292.286c58.464,-69.238 120.443,-135.644 177.149,-206.25c266.959,-332.226 -392.546,-53.19 -875.847,361.101c-189.16,162.142 -381.705,320.442 -567.871,485.937c-360.254,320.215 -677.636,675.456 -785.905,1161.88c-138.313,621.354 -47.916,1221.22 215.788,1797.01c52.572,114.811 113.704,225.065 212.207,343.424c0,-58.593 0.716,-90.56 -0.098,-122.461c-7.487,-290.299 121.517,-507.845 358.985,-664.746c172.819,-114.192 368.262,-168.001 569.336,-209.017c298.405,-60.872 602.636,-29.362 902.409,-64.518c770.67,-90.364 1308.46,-484.245 1583.85,-1217.64c101.009,-268.945 134.635,-544.792 65.755,-851.009Zm501.204,816.211c332.357,-450.13 -31.64,-1257.52 -122.753,-1259.31c-92.448,-1.791 -118.588,-82.227 -140.463,-155.436c-17.903,-59.929 -29.329,-121.778 -45.28,-190.007c-111.067,173.307 -126.465,342.611 -35.742,568.197c142.774,355.11 125.846,705.208 -1.986,1059.21c-72.135,199.87 -185.384,377.246 -285.677,561.914l3.483,5.046l-3.32,-4.786c-13.932,4.558 -14.29,12.826 -6.51,23.438l12.695,-14.486c251.009,-153.157 452.962,-360.058 625.553,-593.782Zm-3117.25,-1675.59c-9.017,12.435 -31.641,24.381 -8.236,49.772c279.948,-206.966 486.328,-472.852 616.244,-793.001c209.668,-516.7 -372.331,-1279.69 -305.111,-1047.95c186.979,644.89 94.661,1244.17 -302.897,1791.18Zm2717.97,-1395.09c-20.248,-447.103 -806.446,-802.506 -560.84,-568.392c216.471,206.283 459.31,392.676 546.289,700.521c9.245,-5.143 13.867,-6.478 13.867,-7.91c0.618,-41.406 2.572,-82.91 0.684,-124.219Zm-1074.09,-605.924c-170.28,-263.607 -200.456,449.056 -18.457,721.289c140.072,209.538 206.348,433.626 162.533,685.449c-7.715,44.303 -13.477,88.932 -20.15,133.398l18.62,1.53c8.235,-16.015 17.871,-31.478 24.479,-48.144c16.601,-41.96 36.588,-83.301 46.94,-126.856c115.202,-484.57 56.185,-948.437 -213.965,-1366.67Zm-2213.22,2485.81c410.091,-405.436 316.699,-1072.43 259.375,-997.494c-227.214,297.071 -303.223,637.728 -296.777,1010.35c18.326,-6.022 30.891,-6.38 37.402,-12.858Z" style="fill:#db0f6b;fill-rule:nonzero;"/><path d="M5240.17,6054.95c101.009,-268.945 -313.965,-26.4 -756.413,112.923c-275.781,86.849 -478.874,-70.963 -492.253,-360.221c-10.97,-236.849 125.163,-398.959 283.562,-542.318c204.231,-184.798 -196.029,-314.16 -536.036,-210.742c-274.674,83.528 -466.829,-87.435 -427.115,-372.07c15.69,-112.533 -942.155,183.007 -1128.32,348.502c-360.254,320.215 -677.636,675.456 -785.905,1161.88c-138.313,621.354 -47.916,1221.22 215.788,1797.01c52.572,114.811 113.704,225.065 212.207,343.424c0,-58.593 0.716,-90.56 -0.098,-122.461c-7.487,-290.299 121.517,-507.845 358.985,-664.746c172.819,-114.192 368.262,-168.001 569.336,-209.017c298.405,-60.872 602.636,-29.362 902.409,-64.518c770.67,-90.364 1308.46,-484.245 1583.85,-1217.64Z" style="fill:#ff2153;fill-rule:nonzero;"/><path d="M2753.91,7337.11c298.405,-60.872 792.15,-1286.95 94.124,-1614.89c-617.663,-290.183 -1399.51,242.324 -1450.34,470.682c-138.313,621.354 -47.916,1221.22 215.788,1797.01c52.572,114.811 113.704,225.065 212.207,343.424c0,-58.593 0.716,-90.56 -0.098,-122.461c-7.487,-290.299 121.517,-507.845 358.985,-664.746c172.819,-114.192 368.262,-168.001 569.336,-209.017Z" style="fill:#fd4f00;fill-rule:nonzero;"/></g></svg>